<?xml version="1.0" encoding="UTF-8" standalone="no"?>
<!-- Created with Inkscape (http://www.inkscape.org/) -->

<svg
   xmlns:dc="http://purl.org/dc/elements/1.1/"
   xmlns:cc="http://creativecommons.org/ns#"
   xmlns:rdf="http://www.w3.org/1999/02/22-rdf-syntax-ns#"
   xmlns:svg="http://www.w3.org/2000/svg"
   xmlns="http://www.w3.org/2000/svg"
   xmlns:sodipodi="http://sodipodi.sourceforge.net/DTD/sodipodi-0.dtd"
   xmlns:inkscape="http://www.inkscape.org/namespaces/inkscape"
   width="939.48621"
   height="617.48682"
   id="svg2"
   version="1.1"
   inkscape:version="0.48.5 r10040"
   sodipodi:docname="logo.svg">
  <defs
     id="defs4" />
  <sodipodi:namedview
     id="base"
     pagecolor="#ffffff"
     bordercolor="#666666"
     borderopacity="1.0"
     inkscape:pageopacity="0.0"
     inkscape:pageshadow="2"
     inkscape:zoom="0.24748737"
     inkscape:cx="-61.39297"
     inkscape:cy="28.814057"
     inkscape:document-units="px"
     inkscape:current-layer="layer1"
     showgrid="false"
     inkscape:window-width="1920"
     inkscape:window-height="1017"
     inkscape:window-x="-8"
     inkscape:window-y="-8"
     inkscape:window-maximized="1"
     fit-margin-top="0"
     fit-margin-left="0"
     fit-margin-right="0"
     fit-margin-bottom="0" />
  <metadata
     id="metadata7">
    <rdf:RDF>
      <cc:Work
         rdf:about="">
        <dc:format>image/svg+xml</dc:format>
        <dc:type
           rdf:resource="http://purl.org/dc/dcmitype/StillImage" />
        <dc:title />
      </cc:Work>
    </rdf:RDF>
  </metadata>
  <g
     inkscape:label="Layer 1"
     inkscape:groupmode="layer"
     id="layer1"
     transform="translate(125.19398,-227.63524)">
    <g
       id="g3007"
       transform="matrix(0.49446276,0.25216289,-0.25216289,0.49446276,547.56561,332.76639)">
      <g
         id="g3011"
         transform="matrix(0.88921602,0.26746915,-0.26746915,0.88921602,70.312287,30.195614)">
        <path
           style="color:#000000;fill:#784421;fill-opacity:1;fill-rule:nonzero;stroke:none;stroke-width:4;marker:none;visibility:visible;display:inline;overflow:visible;enable-background:accumulate"
           d="m 101.96514,-321.53606 c -0.30256,0 -0.53541,0.22193 -0.71875,0.5736 l 8.90625,1200.85497 29.65625,0 8.875,-1200.95926 c -0.18103,-0.30208 -0.44133,-0.46931 -0.71875,-0.46931 l -46,0 z"
           id="rect2998"
           inkscape:connector-curvature="0" />
        <path
           inkscape:connector-curvature="0"
           id="path3005"
           d="m 149.40264,-321.53606 c -0.30256,0 -0.53541,0.22193 -0.71875,0.5736 l 8.90625,1200.85497 29.65625,0 8.875,-1200.95926 c -0.18103,-0.30208 -0.44133,-0.46931 -0.71875,-0.46931 l -46,0 z"
           style="color:#000000;fill:#784421;fill-opacity:1;fill-rule:nonzero;stroke:none;stroke-width:4;marker:none;visibility:visible;display:inline;overflow:visible;enable-background:accumulate" />
      </g>
    </g>
    <path
       inkscape:connector-curvature="0"
       style="color:#000000;fill:#dbe2e3;fill-opacity:1;fill-rule:nonzero;stroke:none;stroke-width:4;marker:none;visibility:visible;display:inline;overflow:visible;enable-background:accumulate"
       d="m 64.549107,547.49554 c 0,154.63973 125.360273,280 280.000003,280 154.63973,0 280,-125.36027 280,-280 l -560.000003,0 z"
       id="path2985" />
    <g
       id="g3047"
       transform="matrix(1.0822855,0,0,1.0822855,203.97979,329.00879)">
      <path
         inkscape:connector-curvature="0"
         id="text3027"
         d="m 246.32186,228.02491 c -7.01014,3.64533 -14.71486,5.62709 -22.68625,4.76869 -4.25114,-0.52856 -7.97344,3.81055 -11.68875,0.73131 -15.01319,-5.33275 -32.61131,2.61349 -41.03125,15.28125 -2.53677,-7.82769 -11.71611,-13.23998 -19.65625,-10.28125 -8.00685,-0.0859 -15.0482,5.85959 -18.65625,11.84375 -11.98257,-1.96524 -24.20278,0.54518 -36.279689,-0.49336 -8.775378,-0.76043 -17.902861,-0.85185 -26.157811,2.36836 -11.319446,-5.74608 -25.094968,1.10408 -36.40625,-5.15625 0.625473,5.72058 -4.778775,0.73967 -7.53125,2.4375 -14.44581,0.39293 -28.8986286,0.65225 -43.34375,-0.0312 -2.705617,-0.41761 -6.826715,2.23903 -6.65625,-2.0625 -2.577304,-7.23171 -11.05431,-11.28367 -18.28125,-8.71875 -7.267291,0.15714 -14.428524,3.34464 -19.15625,8.625 -6.568083,0.38234 -13.848904,1.31026 -19.40625,4.4375 -7.720529,-4.37181 -17.33445,-2.60208 -25.25,0.15625 -7.78872,-3.44179 -16.63901,-1.26307 -24.84375,-2.5625 -6.74697,0.63046 -13.78305,4.60508 -16.03125,11.3125 2.76907,-10.62349 -2.80325,-23.64216 -14.28125,-25.75 -10.43193,-2.6425 -22.42773,4.89577 -24.15625,15.34375 -5.44104,-1.66586 -12.33753,0.92791 -17,-1.25 -2.6307,-9.56697 -12.55761,-14.53741 -21.65625,-15.5 -6.01743,-2.5932 -12.76069,-0.29318 -19.03125,-0.84375 -3.24559,0.50657 -6.2549,3.84816 -9.34375,1 -21.56392,-8.11272 -48.98159,11.39739 -46.46875,34.875 0.45063,4.50303 3.0473,8.46793 5.8125,11.71875 -3.95519,9.96312 -7.3968,20.34657 -11.28125,30.46875 10.09431,4.56661 21.43531,2.69953 32.0625,3 9.24834,0.92019 18.60498,-0.9293 27.84375,0.53125 4.58318,0.53873 8.97373,-2.98626 13.28125,-0.59375 7.54197,1.25519 15.30814,-0.57122 22.84375,0.5625 4.19817,-0.50632 8.42916,-4.53953 12.34375,-1.03125 5.65717,2.06468 11.94272,0.74198 17.59375,-0.375 8.30811,3.51366 18.04657,0.13141 24.84375,-4.21875 3.17769,5.42805 9.94386,5.8233 15.34375,5.5625 7.0659,0.6221 15.3326,-0.86642 19.59375,-7.0625 8.02989,8.56058 21.57365,8.83356 31.71875,4.5 8.339834,4.23956 17.873843,2.88501 26.25,-0.375 6.479173,3.12235 14.403042,3.61996 21.5625,1.71875 4.21624,-0.66259 8.611784,2.19336 13.153449,0.98771 4.518823,-0.79605 8.708903,-1.15022 13.096551,0.19979 6.0829202,0.31782 12.14892538,-2.32175 18.0312502,-0.0625 6.8166008,0.30139 13.5534108,-2.11092 20.2187498,-0.0625 9.871167,-0.94575 21.501967,2.66603 29.8125,-4.21875 1.402393,-1.2505 2.384779,-3.42962 3.78125,-0.84375 6.504941,5.50974 16.105484,6.95942 23.90625,3.6875 8.035308,2.74845 16.591866,0.61717 24.90625,1.28125 3.62245,0.0401 7.3,-1.21661 10.46875,-2.25 6.33127,3.94809 14.3135,2.43365 21.125,1.21875 7.2935,2.92876 15.92842,0.70093 22.1875,-2.9375 3.90944,4.13805 10.64534,3.61559 15.9375,4.09375 10.92881,-1.31267 21.76261,0.74994 32.71856,-0.42585 6.67392,0.30894 13.66859,1.39338 20.06269,-1.13665 8.3777,3.75037 17.62284,-0.79387 26.25,1.625 6.99891,-0.29292 14.13109,0.0302 21.03125,-0.46875 3.24789,-1.11999 6.25155,-3.18043 9.34375,-0.5625 6.01977,2.29183 12.68783,0.55763 18.5625,-0.15625 7.4209,3.29093 15.37732,-1.48515 22.78125,1.0625 2.44139,0.58749 6.48882,-1.36011 6.21875,2.46875 3.95764,13.65431 21.94518,20.35545 33.8125,12.4375 6.10162,-3.431 10.31261,-9.42007 13.21875,-15.6875 8.17944,2.63007 16.83771,-0.997 25.125,0.875 4.14624,-0.6183 8.98813,-1.02209 11.8125,2.8125 0.32103,-5.07784 5.49206,-1.98975 8.5625,-2.65625 4.55982,0.41372 9.22178,-1.35517 13.21875,-2.4375 6.89082,3.98853 15.20918,1.78333 22.375,1.1875 8.76904,2.89833 18.05504,-0.83932 26.99881,1.14247 5.09605,0.55012 10.33895,-1.30488 14.84494,-2.51747 6.06205,4.44197 14.21264,2.28973 21,1.34375 15.38376,5.2493 32.09115,-6.73663 36,-21.65625 4.09673,-5.85025 2.4634,-15.96237 -4.53125,-18.0625 5.26765,-6.92533 -0.46043,-15.37913 0.3125,-22.96875 -1.77485,-9.53709 -12.85401,-14.92232 -21.6875,-11.625 -6.95259,0.86135 -13.73315,5.25705 -16.5625,11.8125 -7.85418,-1.83279 -16.31096,-0.0746 -24.21875,-0.8125 -3.0478,1.26308 -6.48712,2.085 -9.25,0.0312 -8.01338,-1.94807 -16.4319,1.03196 -23.125,4.75 -6.67134,-5.51581 -16.13042,-5.48551 -24.125,-3.6875 -8.04446,-2.596 -16.82446,-0.014 -24.96875,-1.09375 -3.88327,1.76225 -7.87404,1.20984 -11.46875,-0.4375 -7.01933,-1.34754 -13.81211,3.76206 -20.53125,0.625 -6.97912,-0.73886 -14.07434,0.67051 -21,-0.40625 -5.3146,0.28639 -10.74395,3.76896 -15.84375,0.90625 -8.19065,-1.70448 -16.69802,0.15045 -24.96875,-0.65625 -4.80303,0.13948 -9.58551,3.09841 -13.34375,4.78125 -9.88091,-7.70076 -23.36505,-4.24517 -34.9375,-4.53125 -8.28541,-0.0361 -17.60321,-0.0678 -25.25,-0.40625 1.00127,-7.58676 2.22938,-15.14283 3.3125,-22.71875 -1.0625,0.40625 -2.125,0.8125 -3.1875,1.21875 z m -393.6875,35.4375 c -0.25458,1.23911 0.0811,-1.19574 0,0 z m 199.53125,58.1875 c -18.504103,-1.59083 -35.295985,18.63874 -28.6875,36.375 -15.2570325,9.89944 -13.077082,36.73534 3.625,44.15625 8.827713,4.20815 19.172921,4.09657 28.3125,0.9375 1.630929,14.50778 19.13811,23.62105 32.09375,16.9375 7.106642,-3.02081 12.358177,-9.43262 15.5625,-16.34375 7.25801,2.36094 14.8923,-1.31465 21.65625,-2.28125 7.03773,4.36708 15.71466,2.36144 23.25,1.125 8.72823,3.60992 18.37055,-0.25329 27.40625,1.5 3.80699,-0.53211 8.20444,-0.88087 11.0625,2.28125 1.13074,-4.63371 6.13192,-1.22524 9.28125,-2.03125 4.4898,0.33908 9.04566,-1.6973 13.03125,-2.53125 14.21236,7.44899 33.17461,-2.68751 36.52544,-17.9606 2.76974,-7.01379 5.1591,-14.1836 8.59956,-20.9144 -4.87157,-0.81975 -11.19585,1.08302 -15.15625,-0.40625 0.36083,-13.25885 -13.0255,-27.13371 -26.59375,-22.03125 -6.96493,1.38113 -13.85402,-2.08168 -20.90625,-0.65625 -5.11964,-0.34838 -10.54774,-0.43791 -15.375,1 -4.78649,-2.34454 -10.83162,-1.46808 -15.53125,-1.15625 -1.87451,-9.37672 -12.83173,-13.88468 -21.40625,-11 -6.68593,0.48552 -11.61599,5.39926 -16.875,8.59375 -9.14273,2.07505 -19.13401,2.24397 -28.4375,2.6875 -5.094976,-1.41426 -11.442835,1.22345 -15.84375,-0.78125 -2.015775,-11.52963 -14.686264,-18.0568 -25.59375,-17.5 z"
         style="font-size:40px;font-style:normal;font-variant:normal;font-weight:normal;font-stretch:normal;line-height:125%;letter-spacing:0px;word-spacing:0px;fill:#ffffff;fill-opacity:1;stroke:none;font-family:VNF-Futura;-inkscape-font-specification:VNF-Futura" />
      <text
         sodipodi:linespacing="125%"
         id="text2987"
         y="299.83313"
         x="127.54384"
         style="font-size:40px;font-style:normal;font-variant:normal;font-weight:normal;font-stretch:normal;line-height:125%;letter-spacing:0px;word-spacing:0px;fill:#000000;fill-opacity:1;stroke:none;font-family:VNF-Futura;-inkscape-font-specification:VNF-Futura"
         xml:space="preserve"><tspan
           style="font-size:72px;text-align:center;text-anchor:middle;font-family:'Lobster 1.4';-inkscape-font-specification:'Lobster 1.4'"
           y="299.83313"
           x="127.54384"
           id="tspan2989"
           sodipodi:role="line">Mini-restaurant Management</tspan><tspan
           id="tspan2991"
           style="font-size:72px;text-align:center;text-anchor:middle;font-family:'Lobster 1.4';-inkscape-font-specification:'Lobster 1.4'"
           y="389.83313"
           x="127.54384"
           sodipodi:role="line">System</tspan></text>
    </g>
    <rect
       style="color:#000000;fill:#b7c4c8;fill-opacity:1;fill-rule:nonzero;stroke:none;stroke-width:4;marker:none;visibility:visible;display:inline;overflow:visible;enable-background:accumulate"
       id="rect3053"
       width="219.20311"
       height="37.375645"
       x="234.94756"
       y="807.7464"
       ry="1.0015234" />
    <g
       id="g3863"
       transform="matrix(1.0640905,0,0,0.78757294,197.28265,400.99874)">
      <g
         id="g2997"
         transform="translate(7.594486,-98.368126)">
        <path
           style="fill:#e3dedb;fill-opacity:1;stroke:none"
           d="M 38.234871,-121.75561 C -30.053456,35.197395 121.39242,70.9937 22.814927,231.80168 90.119209,67.916958 -57.246672,27.309669 38.234871,-121.75561 z"
           id="path3857"
           inkscape:connector-curvature="0"
           sodipodi:nodetypes="ccc" />
        <path
           sodipodi:nodetypes="ccc"
           inkscape:connector-curvature="0"
           id="path3859"
           d="M 137.92445,-121.75561 C 69.63612,35.197395 221.082,70.9937 122.5045,231.80168 189.80879,67.916958 42.442903,27.309669 137.92445,-121.75561 z"
           style="fill:#e3dedb;fill-opacity:1;stroke:none" />
        <path
           style="fill:#e3dedb;fill-opacity:1;stroke:none"
           d="M 237.61402,-121.75561 C 169.3257,35.197395 320.77157,70.9937 222.19408,231.80168 289.49836,67.916958 142.13248,27.309669 237.61402,-121.75561 z"
           id="path3861"
           inkscape:connector-curvature="0"
           sodipodi:nodetypes="ccc" />
      </g>
    </g>
  </g>
</svg>
